<svg xmlns="http://www.w3.org/2000/svg" xmlns:xlink="http://www.w3.org/1999/xlink" viewBox="0 0 576.68 301.96"><defs><style>.cls-1{fill:#e4e4e4;}.cls-2{fill:#0173fe;}.cls-3{fill:url(#Безымянный_градиент_6);}.cls-4{fill:red;}.cls-5{fill:#ff0202;}.cls-6{fill:#ff0101;}.cls-7{fill:url(#Безымянный_градиент_6-2);}</style><linearGradient id="Безымянный_градиент_6" x1="99.95" y1="188.97" x2="255.58" y2="243.56" gradientTransform="translate(-0.1 2) rotate(-0.12)" gradientUnits="userSpaceOnUse"><stop offset="0" stop-color="#ffe0e0"/><stop offset="0.09" stop-color="#ffb2b2"/><stop offset="0.18" stop-color="#f88"/><stop offset="0.27" stop-color="#fe6666"/><stop offset="0.37" stop-color="#fe4b4b"/><stop offset="0.46" stop-color="#fe3737"/><stop offset="0.56" stop-color="#fe2c2c"/><stop offset="0.66" stop-color="#fe2828"/></linearGradient><linearGradient id="Безымянный_градиент_6-2" x1="-161.45" y1="189.31" x2="-5.82" y2="243.9" gradientTransform="matrix(-1, 0, 0, 1, 316.66, 1.36)" xlink:href="#Безымянный_градиент_6"/></defs><g id="Слой_2" data-name="Слой 2"><g id="Слой_1-2" data-name="Слой 1"><path class="cls-1" d="M71.78,50.23c2.15,1.25,4.31,2.5,6.46,3.77q11.85,7,23.88,13.73c28.12,15.6,56.09,31.34,81.5,51.17q2.35,1.84,4.72,3.68c18,13,34.58,29.66,48.66,46.84.83,1,1.63,2.05,2.44,3.05,2.61,3.29,5.2,6.59,7.73,9.94l2.29,3a197.76,197.76,0,0,1,12.92,18.65l1.69,2.76c2.55,4.19,4,7,4.76,10.72a33.65,33.65,0,0,1,.45,4.44c0,.32.07,1.31.09,4.45,0,1.7,0,3.11,0,4.09h-.05a5.14,5.14,0,0,1-.67-.31l-.28-.17a4,4,0,0,1-.9-.75l-.06-.08-.06-.1-.91-1.3c-12-19-28.86-35-47.16-48l-1.84-1.3C188.61,160,188.61,160,158,144.49c-32.25-16.33-65.62-32.16-95-53.39l-1.73-1.26C35.58,71.63,13.44,45.36,3.76,15c-.23-.77-.46-1.52-.69-2.27A35.44,35.44,0,0,1,1.35,4.77a23.52,23.52,0,0,1,0-3.94c3.49,3,6.3,5.27,7.91,6.58A524.15,524.15,0,0,0,71.78,50.23Z"/><path class="cls-2" d="M53.15,102.33l1.76,1c5.64,3.22,10,5.62,12.9,7.2,9.9,5.4,18.59,10.15,31.57,17,3.29,1.74,6.6,3.45,10,5.23,12.51,6.64,25.32,12.62,38.14,18.65,28.8,13.56,57,28,82,47.87q2.28,1.81,4.61,3.6c5.22,4,10.13,8.4,15,12.9,2.2,2,4.4,4,6.77,5.84A51.3,51.3,0,0,1,263,229l2.33,2.76a19.08,19.08,0,0,1,3.38,6.88,24,24,0,0,1,.69,5.92c0,.43,0,.8,0,1.05a26.71,26.71,0,0,1-3.83-2.29,29.3,29.3,0,0,1-4.31-3.82c-9.44-9.63-21.53-16.79-33-23.81l-2.09-1.28c-12.84-7.76-26.48-13.22-40.43-18.64q-13-5.07-26-10.17l-10.41-4.05c-32.87-12.81-32.87-12.81-47.5-21.91l-2.22-1.37A131.8,131.8,0,0,1,79.15,142l-1.52-1.46s-14.72-14.36-23.12-34.47v0c-.43-1-.7-1.46-1-2.28a2.74,2.74,0,0,1-.12-.32A4,4,0,0,1,53.15,102.33Z"/><path class="cls-3" d="M262.46,248.93l-2.06-1.62a188,188,0,0,0-24.85-16.61l-2.18-1.21A173.18,173.18,0,0,0,203,216.42q-4.53-1.48-9-3L186.74,211l-3.6-1.21c-4.67-1.58-9.28-3.06-14-4.31h.05a337.86,337.86,0,0,1-38.32-13.91c-9.3-4-17.86-8.23-25.67-12.44a60.09,60.09,0,0,0,14.87,25.06s10.43,10.67,33.34,18.49c1.77.6,3.55,1.19,5.36,1.69l2.34.62c8.45,2.28,17,4.11,25.54,5.83,26.1,5.21,51.38,11,73.5,26.55a33.1,33.1,0,0,0,9.26,5.05v-4C268.35,253.92,265.9,251.76,262.46,248.93Z"/><path class="cls-4" d="M136,268.69l33-.07v8l-25,.05v5l25-.05.05,20-33,.07,0-8,25-.06v-5l-25,.06Z"/><path class="cls-5" d="M178,257.6l8,0,0,23c3.68-1.05,5.64-1.63,7.34-2.71a21.16,21.16,0,0,0,4.59-4.44c.65-.79,3.37-4.2,4.91-4.55a16.18,16.18,0,0,1,1.65-.27c.16,0,.44-.05.84-.07,1.08-.05,1.93,0,2.15,0H211a12,12,0,0,1-1,4.29c-.89,2-2.23,3.36-5,6l-2.78,2.68-2.15,2c1.93,4.65,5.46,7.36,9.12,10.67,1.9,2.31,1.9,2.31,2.18,5.1l0,2.2-1.58,0h-1.9a26.15,26.15,0,0,1-3,0,6.7,6.7,0,0,1-2.41-1.11c-1.57-1.05-1.73-1.68-4.47-4.82q-1.47-1.68-3-3.33l-1.3-1.51c-2.15-1.75-2.15-1.75-7.67-2.2l0,13-8,0Z"/><path class="cls-5" d="M445,268.06l33-.07.06,33h-8L470,276l-17,0,.05,25-8,0Z"/><path class="cls-5" d="M370,268.21l33-.07.06,33-8,0-.05-25-17,0,.05,25-8,0Z"/><path class="cls-4" d="M85,257.79l8,0,0,11,17,0v8l-17,0,0,17,17,0,0,8-25,.05Z"/><path class="cls-4" d="M0,260H8l.07,34,26-.06,0,8L.09,302Z"/><path class="cls-4" d="M412,257.12h8l.08,44h-8Z"/><path class="cls-6" d="M328,268.29l.06,33,33-.06-.06-33Zm25.05,24.95-17,0,0-17,17,0Z"/><path class="cls-6" d="M216,268.52l.07,33,33-.06-.07-33Zm25,25-17,0,0-17,17,0Z"/><path class="cls-4" d="M428,269.09l8,0,.06,32-8,0Z"/><path class="cls-4" d="M119,269.72l8,0,.07,32-8,0Z"/><path class="cls-4" d="M520.06,287.9l0-21L487,267l.06,34,33-.07v-8l-25,.05v-5ZM495,275l17,0v6l-17,0Z"/><path class="cls-4" d="M76.06,288.81l0-21-33,.06.07,34,33-.06,0-8-25,.05v-5ZM51,275.86l17,0v6l-17,0Z"/><path class="cls-4" d="M285.07,293.38h8v8h-8Z"/><path class="cls-4" d="M428,257.09l8,0v6l-8,0Z"/><path class="cls-4" d="M119,257.72l8,0v6l-8,0Z"/><path class="cls-1" d="M568.7,6.61C570.3,5.3,573.1,3,576.58,0a23.92,23.92,0,0,1,0,3.94,35.31,35.31,0,0,1-1.7,7.94c-.22.75-.45,1.5-.68,2.28C564.69,44.58,542.66,70.94,517,89.25l-1.73,1.26c-29.26,21.36-62.57,37.32-94.74,53.79C390,159.92,390,159.92,361.22,178.57l-1.84,1.3c-18.24,13.06-35,29.13-47,48.21l-.9,1.31-.06.1-.06.08a3.88,3.88,0,0,1-.89.76l-.29.17a4.57,4.57,0,0,1-.67.31h0c0-1,0-2.39,0-4.1,0-3.13.06-4.12.07-4.44a35.35,35.35,0,0,1,.43-4.45c.71-3.72,2.18-6.53,4.72-10.73l1.68-2.77a197.1,197.1,0,0,1,12.84-18.7l2.28-3c2.52-3.37,5.09-6.68,7.69-10l2.42-3.06c14-17.24,30.48-34,48.48-47q2.36-1.85,4.7-3.7C420.14,98.88,448,83,476.1,67.31q12-6.73,23.83-13.83l6.44-3.8A523.69,523.69,0,0,0,568.7,6.61Z"/><path class="cls-2" d="M525,102.83l-.12.32c-.33.82-.6,1.26-1,2.28v0c-8.32,20.15-23,34.57-23,34.57l-1.51,1.46a131.24,131.24,0,0,1-20.44,16.35l-2.21,1.38c-14.6,9.17-14.6,9.17-47.42,22.11l-10.39,4.09q-13,5.16-25.95,10.27c-13.93,5.49-27.55,11-40.35,18.81l-2.09,1.29c-11.41,7.07-23.47,14.27-32.88,24a28.87,28.87,0,0,1-4.3,3.83,26.76,26.76,0,0,1-3.81,2.31c0-.25,0-.62,0-1a24.41,24.41,0,0,1,.67-5.93,18.76,18.76,0,0,1,3.35-6.88l2.32-2.78a51.31,51.31,0,0,1,7.11-7.4c2.36-1.85,4.55-3.81,6.74-5.86,4.82-4.53,9.72-8.89,14.93-13q2.31-1.78,4.59-3.61c24.93-20,53.1-34.53,81.85-48.21,12.79-6.08,25.58-12.11,38.06-18.8,3.34-1.8,6.64-3.52,9.92-5.27,13-6.92,21.63-11.7,31.5-17.14,2.89-1.6,7.25-4,12.88-7.25l1.75-1A4.26,4.26,0,0,1,525,102.83Z"/><path class="cls-7" d="M316.5,249.16l2.05-1.63a188.41,188.41,0,0,1,24.79-16.71l2.18-1.22a173.2,173.2,0,0,1,30.32-13.19q4.52-1.5,9-3l7.2-2.46,3.59-1.22c4.66-1.6,9.27-3.1,14-4.37h-.05a337.51,337.51,0,0,0,38.27-14.07c9.28-4.06,17.82-8.3,25.62-12.54a60.17,60.17,0,0,1-14.77,25.12s-10.38,10.72-33.27,18.62c-1.77.62-3.55,1.21-5.35,1.72l-2.33.63c-8.44,2.31-16.95,4.17-25.52,5.93-26.08,5.32-51.34,11.2-73.4,26.85a32.55,32.55,0,0,1-9.24,5.08v-4C310.63,254.17,313.07,252,316.5,249.16Z"/></g></g></svg>