<svg width="24" height="24" viewBox="0 0 24 24" fill="none" xmlns="http://www.w3.org/2000/svg">
<path d="M15.0182 11.7941C13.9572 12.3613 13.0384 13.1685 12.3492 14.1393L10.446 10.507L6.19103 14.7283L6.56293 17.4553L5.41442 18.6115L3.47835 15.1319L0 13.2121L1.15945 12.0559L3.87213 12.4377L8.12709 8.18362L0 3.95137L1.54229 2.41336L11.6054 4.72583L15.8604 0.482672C16.4948 -0.160891 17.534 -0.160891 18.1793 0.482672C18.8137 1.12624 18.8137 2.1843 18.1793 2.79514L13.9243 7.03829L15.0182 11.7941ZM23.8453 20.0732C23.9547 20.0732 23.9547 20.1823 23.8453 20.2913L22.7515 22.1457C22.6421 22.2547 22.5327 22.2547 22.4233 22.2547L21.1108 21.8184C20.7826 22.0366 20.5638 22.1457 20.2357 22.3638L20.0169 23.7818C20.0169 23.8909 19.9076 24 19.7982 24H17.6105C17.5011 24 17.3918 23.8909 17.2824 23.7818L17.0636 22.3638C16.7355 22.2547 16.4073 22.0366 16.1886 21.8184L14.876 22.3638C14.7666 22.3638 14.6572 22.3638 14.5478 22.2547L13.454 20.4004C13.3446 20.2913 13.454 20.1823 13.5634 20.0732L14.7666 19.2005V18.1098L13.5634 17.2371C13.454 17.1281 13.454 17.019 13.454 16.9099L14.5478 15.0556C14.6572 14.9465 14.7666 14.9465 14.876 14.9465L16.1886 15.4919C16.5167 15.2737 16.7355 15.1646 17.0636 14.9465L17.2824 13.5285C17.2824 13.4194 17.3918 13.3103 17.6105 13.3103H19.7982C19.9076 13.3103 20.0169 13.4194 20.0169 13.5285L20.2357 14.9465C20.5638 15.0556 20.892 15.2737 21.2201 15.4919L22.5327 14.9465C22.6421 14.9465 22.8609 14.9465 22.8609 15.0556L23.9547 16.9099C24.0641 17.019 23.9547 17.1281 23.8453 17.2371L22.6421 18.1098V19.2005L23.8453 20.0732ZM20.2357 18.5461C20.2357 17.6734 19.47 16.9099 18.595 16.9099C17.7199 16.9099 16.9542 17.6734 16.9542 18.5461C16.9542 19.4187 17.7199 20.1823 18.595 20.1823C19.47 20.1823 20.2357 19.4187 20.2357 18.5461Z" fill="black"/>
</svg>
