<svg width="24" height="24" viewBox="0 0 24 24" fill="none" xmlns="http://www.w3.org/2000/svg">
<path d="M15.564 4.67501C15.396 4.06209 14.76 3.68953 14.148 3.85779L10.068 4.95143L4.74 0L3.264 0.396595L6.456 5.91287L2.628 6.9344L1.116 5.75664L0 6.05709L1.992 9.51828L14.736 6.10516C15.36 5.92489 15.72 5.28793 15.564 4.67501ZM22.8 9.57837L21.6 11.982L15.6 11.982L14.4 9.57837L15.6 8.37657L18 8.37657V5.97296H19.2V8.37657H21.6L22.8 9.57837ZM24 21.5964V24L0 24L0 21.5964L15.6 21.5964L15.6 13.1838L21.6 13.1838V21.5964H24Z" fill="black"/>
</svg>
